<?xml version='1.0' encoding='UTF-8'?>
<!DOCTYPE svg PUBLIC "-//W3C//DTD SVG 1.0//EN" "http://www.w3.org/TR/2001/REC-SVG-20010904/DTD/svg10.dtd">
<svg viewBox="0 0 640 200" xmlns="http://www.w3.org/2000/svg" xmlns:inkspace="http://www.inkscape.org/namespaces/inkscape" xmlns:xlink="http://www.w3.org/1999/xlink">
  <defs id="defs_block">
    <filter height="1.504" id="filter_blur" inkspace:collect="always" width="1.1575" x="-0.07875" y="-0.252">
      <feGaussianBlur id="feGaussianBlur3780" inkspace:collect="always" stdDeviation="4.2" />
    </filter>
  </defs>
  <title>blockdiag</title>
  <desc />
  <rect fill="none" height="140" style="filter:url(#filter_blur)" width="144" x="248" y="30" />
  <path d="M 75 46 L 187 46 A8,8 0 0 1 195 54 L 195 78 A8,8 0 0 1 187 86 L 75 86 A8,8 0 0 1 67 78 L 67 54 A8,8 0 0 1 75 46" fill="rgb(0,0,0)" stroke="rgb(0,0,0)" style="filter:url(#filter_blur);opacity:0.7;fill-opacity:1" />
  <path d="M 267 126 L 379 126 A8,8 0 0 1 387 134 L 387 158 A8,8 0 0 1 379 166 L 267 166 A8,8 0 0 1 259 158 L 259 134 A8,8 0 0 1 267 126" fill="rgb(0,0,0)" stroke="rgb(0,0,0)" style="filter:url(#filter_blur);opacity:0.7;fill-opacity:1" />
  <path d="M 267 46 L 379 46 A8,8 0 0 1 387 54 L 387 78 A8,8 0 0 1 379 86 L 267 86 A8,8 0 0 1 259 78 L 259 54 A8,8 0 0 1 267 46" fill="rgb(0,0,0)" stroke="rgb(0,0,0)" style="filter:url(#filter_blur);opacity:0.7;fill-opacity:1" />
  <path d="M 459 126 L 571 126 A8,8 0 0 1 579 134 L 579 158 A8,8 0 0 1 571 166 L 459 166 A8,8 0 0 1 451 158 L 451 134 A8,8 0 0 1 459 126" fill="rgb(0,0,0)" stroke="rgb(0,0,0)" style="filter:url(#filter_blur);opacity:0.7;fill-opacity:1" />
  <path d="M 72 40 L 184 40 A8,8 0 0 1 192 48 L 192 72 A8,8 0 0 1 184 80 L 72 80 A8,8 0 0 1 64 72 L 64 48 A8,8 0 0 1 72 40" fill="rgb(255,255,255)" stroke="rgb(0,0,0)" />
  <text fill="rgb(0,0,0)" font-family="sans-serif" font-size="11" font-style="normal" font-weight="normal" text-anchor="middle" textLength="97" x="128" y="59">Dynamic Resource</text>
  <text fill="rgb(0,0,0)" font-family="sans-serif" font-size="11" font-style="normal" font-weight="normal" text-anchor="middle" textLength="115" x="128" y="72">Exchange Simulation</text>
  <path d="M 264 120 L 376 120 A8,8 0 0 1 384 128 L 384 152 A8,8 0 0 1 376 160 L 264 160 A8,8 0 0 1 256 152 L 256 128 A8,8 0 0 1 264 120" fill="rgb(255,255,255)" stroke="rgb(0,0,0)" />
  <text fill="rgb(0,0,0)" font-family="sans-serif" font-size="11" font-style="normal" font-weight="normal" text-anchor="middle" textLength="61" x="320" y="139">Analysis &amp;</text>
  <text fill="rgb(0,0,0)" font-family="sans-serif" font-size="11" font-style="normal" font-weight="normal" text-anchor="middle" textLength="79" x="320" y="152">Visualization</text>
  <path d="M 264 40 L 376 40 A8,8 0 0 1 384 48 L 384 72 A8,8 0 0 1 376 80 L 264 80 A8,8 0 0 1 256 72 L 256 48 A8,8 0 0 1 264 40" fill="rgb(255,255,255)" stroke="rgb(0,0,0)" />
  <text fill="rgb(0,0,0)" font-family="sans-serif" font-size="11" font-style="normal" font-weight="normal" text-anchor="middle" textLength="79" x="320" y="66">Domain Models</text>
  <path d="M 456 120 L 568 120 A8,8 0 0 1 576 128 L 576 152 A8,8 0 0 1 568 160 L 456 160 A8,8 0 0 1 448 152 L 448 128 A8,8 0 0 1 456 120" fill="rgb(255,255,255)" stroke="rgb(0,0,0)" />
  <text fill="rgb(0,0,0)" font-family="sans-serif" font-size="11" font-style="normal" font-weight="normal" text-anchor="middle" textLength="61" x="512" y="139">Simulation</text>
  <text fill="rgb(0,0,0)" font-family="sans-serif" font-size="11" font-style="normal" font-weight="normal" text-anchor="middle" textLength="79" x="512" y="152">Orchestration</text>
  <path d="M 192 60 L 248 60" fill="none" stroke="rgb(0,0,0)" />
  <polygon fill="rgb(0,0,0)" points="255,60 248,56 248,64 255,60" stroke="rgb(0,0,0)" />
  <path d="M 192 60 L 224 60" fill="none" stroke="rgb(0,0,0)" />
  <path d="M 224 60 L 224 140" fill="none" stroke="rgb(0,0,0)" />
  <path d="M 224 140 L 248 140" fill="none" stroke="rgb(0,0,0)" />
  <polygon fill="rgb(0,0,0)" points="255,140 248,136 248,144 255,140" stroke="rgb(0,0,0)" />
  <path d="M 576 140 L 592 140" fill="none" stroke="rgb(0,0,0)" />
  <path d="M 592 140 L 592 25" fill="none" stroke="rgb(0,0,0)" />
  <path d="M 128 25 L 592 25" fill="none" stroke="rgb(0,0,0)" />
  <path d="M 128 25 L 128 32" fill="none" stroke="rgb(0,0,0)" />
  <polygon fill="rgb(0,0,0)" points="128,39 124,32 132,32 128,39" stroke="rgb(0,0,0)" />
  <path d="M 384 140 L 440 140" fill="none" stroke="rgb(0,0,0)" />
  <polygon fill="rgb(0,0,0)" points="447,140 440,136 440,144 447,140" stroke="rgb(0,0,0)" />
  <path d="M 320 80 L 320 112" fill="none" stroke="rgb(0,0,0)" />
  <polygon fill="rgb(0,0,0)" points="320,119 316,112 324,112 320,119" stroke="rgb(0,0,0)" />
</svg>
