<?xml version='1.0' encoding='UTF-8'?>
<!DOCTYPE svg PUBLIC "-//W3C//DTD SVG 1.0//EN" "http://www.w3.org/TR/2001/REC-SVG-20010904/DTD/svg10.dtd">
<svg viewBox="0 0 640 280" xmlns="http://www.w3.org/2000/svg" xmlns:inkspace="http://www.inkscape.org/namespaces/inkscape" xmlns:xlink="http://www.w3.org/1999/xlink">
  <defs id="defs_block">
    <filter height="1.504" id="filter_blur" inkspace:collect="always" width="1.1575" x="-0.07875" y="-0.252">
      <feGaussianBlur id="feGaussianBlur3780" inkspace:collect="always" stdDeviation="4.2" />
    </filter>
  </defs>
  <title>blockdiag</title>
  <desc />
  <rect fill="rgb(0,139,139)" height="60" style="filter:url(#filter_blur)" width="144" x="56" y="30" />
  <rect fill="rgb(184,134,11)" height="60" style="filter:url(#filter_blur)" width="144" x="248" y="30" />
  <rect fill="rgb(153,50,204)" height="220" style="filter:url(#filter_blur)" width="144" x="440" y="30" />
  <path d="M 75 46 L 187 46 A8,8 0 0 1 195 54 L 195 78 A8,8 0 0 1 187 86 L 75 86 A8,8 0 0 1 67 78 L 67 54 A8,8 0 0 1 75 46" fill="rgb(0,0,0)" stroke="rgb(0,0,0)" style="filter:url(#filter_blur);opacity:0.7;fill-opacity:1" />
  <path d="M 267 46 L 379 46 A8,8 0 0 1 387 54 L 387 78 A8,8 0 0 1 379 86 L 267 86 A8,8 0 0 1 259 78 L 259 54 A8,8 0 0 1 267 46" fill="rgb(0,0,0)" stroke="rgb(0,0,0)" style="filter:url(#filter_blur);opacity:0.7;fill-opacity:1" />
  <path d="M 459 46 L 571 46 A8,8 0 0 1 579 54 L 579 78 A8,8 0 0 1 571 86 L 459 86 A8,8 0 0 1 451 78 L 451 54 A8,8 0 0 1 459 46" fill="rgb(0,0,0)" stroke="rgb(0,0,0)" style="filter:url(#filter_blur);opacity:0.7;fill-opacity:1" />
  <path d="M 459 126 L 571 126 A8,8 0 0 1 579 134 L 579 158 A8,8 0 0 1 571 166 L 459 166 A8,8 0 0 1 451 158 L 451 134 A8,8 0 0 1 459 126" fill="rgb(0,0,0)" stroke="rgb(0,0,0)" style="filter:url(#filter_blur);opacity:0.7;fill-opacity:1" />
  <path d="M 459 206 L 571 206 A8,8 0 0 1 579 214 L 579 238 A8,8 0 0 1 571 246 L 459 246 A8,8 0 0 1 451 238 L 451 214 A8,8 0 0 1 459 206" fill="rgb(0,0,0)" stroke="rgb(0,0,0)" style="filter:url(#filter_blur);opacity:0.7;fill-opacity:1" />
  <path d="M 72 40 L 184 40 A8,8 0 0 1 192 48 L 192 72 A8,8 0 0 1 184 80 L 72 80 A8,8 0 0 1 64 72 L 64 48 A8,8 0 0 1 72 40" fill="rgb(255,255,255)" stroke="rgb(0,0,0)" />
  <text fill="rgb(0,0,0)" font-family="sansserif" font-size="11" font-style="normal" font-weight="normal" x="80" y="66">Query Requesters</text>
  <path d="M 264 40 L 376 40 A8,8 0 0 1 384 48 L 384 72 A8,8 0 0 1 376 80 L 264 80 A8,8 0 0 1 256 72 L 256 48 A8,8 0 0 1 264 40" fill="rgb(255,255,255)" stroke="rgb(0,0,0)" />
  <text fill="rgb(0,0,0)" font-family="sansserif" font-size="11" font-style="normal" font-weight="normal" x="275" y="66">Query Suppliers</text>
  <path d="M 456 40 L 568 40 A8,8 0 0 1 576 48 L 576 72 A8,8 0 0 1 568 80 L 456 80 A8,8 0 0 1 448 72 L 448 48 A8,8 0 0 1 456 40" fill="rgb(255,255,255)" stroke="rgb(0,0,0)" />
  <text fill="rgb(0,0,0)" font-family="sansserif" font-size="11" font-style="normal" font-weight="normal" x="467" y="66">Requester Prefs</text>
  <path d="M 456 120 L 568 120 A8,8 0 0 1 576 128 L 576 152 A8,8 0 0 1 568 160 L 456 160 A8,8 0 0 1 448 152 L 448 128 A8,8 0 0 1 456 120" fill="rgb(255,255,255)" stroke="rgb(0,0,0)" />
  <text fill="rgb(0,0,0)" font-family="sansserif" font-size="11" font-style="normal" font-weight="normal" x="482" y="146">Inst Prefs</text>
  <path d="M 456 200 L 568 200 A8,8 0 0 1 576 208 L 576 232 A8,8 0 0 1 568 240 L 456 240 A8,8 0 0 1 448 232 L 448 208 A8,8 0 0 1 456 200" fill="rgb(255,255,255)" stroke="rgb(0,0,0)" />
  <text fill="rgb(0,0,0)" font-family="sansserif" font-size="11" font-style="normal" font-weight="normal" x="476" y="226">Region Prefs</text>
  <path d="M 192 60 L 248 60" fill="none" stroke="rgb(0,0,0)" />
  <polygon fill="rgb(0,0,0)" points="255,60 248,56 248,64 255,60" stroke="rgb(0,0,0)" />
  <path d="M 384 60 L 440 60" fill="none" stroke="rgb(0,0,0)" />
  <polygon fill="rgb(0,0,0)" points="447,60 440,56 440,64 447,60" stroke="rgb(0,0,0)" />
  <path d="M 512 80 L 512 112" fill="none" stroke="rgb(0,0,0)" />
  <polygon fill="rgb(0,0,0)" points="512,119 508,112 516,112 512,119" stroke="rgb(0,0,0)" />
  <path d="M 512 160 L 512 192" fill="none" stroke="rgb(0,0,0)" />
  <polygon fill="rgb(0,0,0)" points="512,199 508,192 516,192 512,199" stroke="rgb(0,0,0)" />
  <text fill="rgb(0,0,0)" font-family="sansserif" font-size="11" font-style="normal" font-weight="normal" x="119" y="36">RFB</text>
  <text fill="rgb(0,0,0)" font-family="sansserif" font-size="11" font-style="normal" font-weight="normal" x="308" y="36">RRFB</text>
  <text fill="rgb(0,0,0)" font-family="sansserif" font-size="11" font-style="normal" font-weight="normal" x="506" y="36">PA</text>
</svg>
